<?xml version="1.0" encoding="UTF-8"?>
<!DOCTYPE svg PUBLIC "-//W3C//DTD SVG 1.1//EN" "http://www.w3.org/Graphics/SVG/1.1/DTD/svg11.dtd">
<svg xmlns="http://www.w3.org/2000/svg" version="1.1" width="500px" height="500px" style="shape-rendering:geometricPrecision; text-rendering:geometricPrecision; image-rendering:optimizeQuality; fill-rule:evenodd; clip-rule:evenodd" xmlns:xlink="http://www.w3.org/1999/xlink">
<g><path style="opacity:1" fill="#fefefe" d="M -0.5,-0.5 C 166.167,-0.5 332.833,-0.5 499.5,-0.5C 499.5,166.167 499.5,332.833 499.5,499.5C 332.833,499.5 166.167,499.5 -0.5,499.5C -0.5,332.833 -0.5,166.167 -0.5,-0.5 Z"/></g>
<g><path style="opacity:1" fill="#536d8f" d="M 235.5,47.5 C 235.53,48.4972 235.03,49.1639 234,49.5C 230.259,51.4143 226.426,53.081 222.5,54.5C 226.071,50.9692 230.404,48.6359 235.5,47.5 Z"/></g>
<g><path style="opacity:1" fill="#0b3e7f" d="M 242.5,45.5 C 242.833,45.5 243.167,45.5 243.5,45.5C 246.364,45.0642 248.697,45.8975 250.5,48C 253.833,48.3333 257.167,48.6667 260.5,49C 265.613,52.1396 271.113,54.3062 277,55.5C 277.711,57.8991 277.544,60.2324 276.5,62.5C 276.808,63.3081 277.308,63.9747 278,64.5C 279.143,61.0847 280.81,60.7514 283,63.5C 283.122,65.1686 282.788,66.8353 282,68.5C 281.439,67.9781 280.772,67.6448 280,67.5C 274.519,68.3165 269.019,68.9831 263.5,69.5C 263.037,77.4476 264.37,84.9476 267.5,92C 265.365,92.8763 264.031,94.3763 263.5,96.5C 262.844,95.7222 262.011,95.0556 261,94.5C 260.235,94.5699 259.735,94.9033 259.5,95.5C 259.167,95.5 258.833,95.5 258.5,95.5C 256.669,93.1547 255.502,90.488 255,87.5C 253.981,86.3128 252.814,85.3128 251.5,84.5C 250.168,86.5343 248.834,88.5343 247.5,90.5C 247.721,85.9385 246.221,85.2718 243,88.5C 242.502,92.4914 241.335,96.158 239.5,99.5C 239.5,97.8333 239.5,96.1667 239.5,94.5C 237.302,94.8799 235.635,94.2132 234.5,92.5C 234.5,90.1667 234.5,87.8333 234.5,85.5C 235.338,85.1583 235.672,84.4916 235.5,83.5C 238.622,82.539 240.622,80.3723 241.5,77C 239.726,74.657 238.392,72.157 237.5,69.5C 230.646,69.176 223.979,69.5093 217.5,70.5C 214.176,69.8895 213.676,68.2228 216,65.5C 217.688,63.9551 219.688,62.9551 222,62.5C 222.309,61.2341 222.809,60.0674 223.5,59C 222.542,57.8525 222.875,56.8525 224.5,56C 228.398,54.4053 232.398,53.2386 236.5,52.5C 237.089,48.9138 239.089,46.5805 242.5,45.5 Z"/></g>
<g><path style="opacity:1" fill="#1e4376" d="M 290.5,77.5 C 288.041,77.69 286.374,76.69 285.5,74.5C 279.077,72.2894 272.41,70.9561 265.5,70.5C 265.662,72.8244 266.828,74.4911 269,75.5C 269.495,77.4727 269.662,79.4727 269.5,81.5C 268.793,83.2307 267.793,84.8974 266.5,86.5C 267.325,87.3857 268.325,87.719 269.5,87.5C 270.847,86.9717 272.181,86.805 273.5,87C 272.829,87.9862 272.829,89.1529 273.5,90.5C 271.678,92.0101 269.678,93.3434 267.5,94.5C 265.088,94.6941 264.088,96.0274 264.5,98.5C 263.662,98.1583 263.328,97.4916 263.5,96.5C 264.031,94.3763 265.365,92.8763 267.5,92C 264.37,84.9476 263.037,77.4476 263.5,69.5C 269.019,68.9831 274.519,68.3165 280,67.5C 280.772,67.6448 281.439,67.9781 282,68.5C 282.788,66.8353 283.122,65.1686 283,63.5C 280.81,60.7514 279.143,61.0847 278,64.5C 277.308,63.9747 276.808,63.3081 276.5,62.5C 277.544,60.2324 277.711,57.8991 277,55.5C 271.113,54.3062 265.613,52.1396 260.5,49C 257.167,48.6667 253.833,48.3333 250.5,48C 248.697,45.8975 246.364,45.0642 243.5,45.5C 245.743,44.1883 248.41,43.5217 251.5,43.5C 254.167,43.6667 256.833,43.8333 259.5,44C 266.354,46.5042 273.021,49.5042 279.5,53C 287.295,59.1266 294.795,65.6266 302,72.5C 302.334,74.8473 302.167,77.1806 301.5,79.5C 298.05,78.0905 294.384,77.4238 290.5,77.5 Z"/></g>
<g><path style="opacity:1" fill="#193e73" d="M 242.5,45.5 C 239.089,46.5805 237.089,48.9138 236.5,52.5C 232.398,53.2386 228.398,54.4053 224.5,56C 222.875,56.8525 222.542,57.8525 223.5,59C 222.809,60.0674 222.309,61.2341 222,62.5C 219.688,62.9551 217.688,63.9551 216,65.5C 213.676,68.2228 214.176,69.8895 217.5,70.5C 217.459,72.7453 216.625,73.4119 215,72.5C 214.349,74.235 214.515,75.9017 215.5,77.5C 214.3,78.2916 212.967,78.2916 211.5,77.5C 209.167,77.5 206.833,77.5 204.5,77.5C 202.692,76.0821 202.025,74.0821 202.5,71.5C 206.146,68.5211 209.479,65.1877 212.5,61.5C 215.869,59.1162 219.203,56.7829 222.5,54.5C 226.426,53.081 230.259,51.4143 234,49.5C 235.03,49.1639 235.53,48.4972 235.5,47.5C 237.438,45.8372 239.772,45.1706 242.5,45.5 Z"/></g>
<g><path style="opacity:1" fill="#26466e" d="M 235.5,83.5 C 235.214,81.7231 234.547,80.0564 233.5,78.5C 234.992,76.0276 235.658,73.3609 235.5,70.5C 229.32,70.9523 223.32,71.9523 217.5,73.5C 217.5,77.1746 219.167,79.8413 222.5,81.5C 223.687,83.9754 225.687,84.9754 228.5,84.5C 230.379,85.3414 232.379,85.6747 234.5,85.5C 234.5,87.8333 234.5,90.1667 234.5,92.5C 233.127,92.6567 231.793,92.49 230.5,92C 228.167,90.3333 225.833,88.6667 223.5,87C 218.502,85.1773 214.502,82.0106 211.5,77.5C 212.967,78.2916 214.3,78.2916 215.5,77.5C 214.515,75.9017 214.349,74.235 215,72.5C 216.625,73.4119 217.459,72.7453 217.5,70.5C 223.979,69.5093 230.646,69.176 237.5,69.5C 238.392,72.157 239.726,74.657 241.5,77C 240.622,80.3723 238.622,82.539 235.5,83.5 Z"/></g>
<g><path style="opacity:1" fill="#f0f3f6" d="M 235.5,83.5 C 235.672,84.4916 235.338,85.1583 234.5,85.5C 232.379,85.6747 230.379,85.3414 228.5,84.5C 226.544,83.5082 224.544,82.5082 222.5,81.5C 219.167,79.8413 217.5,77.1746 217.5,73.5C 223.32,71.9523 229.32,70.9523 235.5,70.5C 235.658,73.3609 234.992,76.0276 233.5,78.5C 234.547,80.0564 235.214,81.7231 235.5,83.5 Z"/></g>
<g><path style="opacity:1" fill="#f0f3f6" d="M 285.5,74.5 C 285.649,75.552 285.483,76.552 285,77.5C 282.54,78.9578 280.373,80.7911 278.5,83C 276.061,84.6103 273.394,85.4436 270.5,85.5C 269.566,84.4324 269.232,83.099 269.5,81.5C 269.662,79.4727 269.495,77.4727 269,75.5C 266.828,74.4911 265.662,72.8244 265.5,70.5C 272.41,70.9561 279.077,72.2894 285.5,74.5 Z"/></g>
<g><path style="opacity:1" fill="#5f6d89" d="M 202.5,71.5 C 202.025,74.0821 202.692,76.0821 204.5,77.5C 203.791,78.404 202.791,78.7373 201.5,78.5C 201.198,75.9407 201.532,73.6074 202.5,71.5 Z"/></g>
<g><path style="opacity:1" fill="#143885" d="M 288.5,70.5 C 291.32,70.2475 293.986,70.7475 296.5,72C 297.38,73.3561 297.714,74.8561 297.5,76.5C 294.813,76.6641 292.146,76.4974 289.5,76C 288.594,74.3005 288.261,72.4672 288.5,70.5 Z"/></g>
<g><path style="opacity:1" fill="#324d6c" d="M 285.5,74.5 C 286.374,76.69 288.041,77.69 290.5,77.5C 286.066,83.5389 280.399,87.8722 273.5,90.5C 272.829,89.1529 272.829,87.9862 273.5,87C 272.181,86.805 270.847,86.9717 269.5,87.5C 269.833,86.8333 270.167,86.1667 270.5,85.5C 273.394,85.4436 276.061,84.6103 278.5,83C 280.373,80.7911 282.54,78.9578 285,77.5C 285.483,76.552 285.649,75.552 285.5,74.5 Z"/></g>
<g><path style="opacity:1" fill="#97a9b9" d="M 222.5,81.5 C 224.544,82.5082 226.544,83.5082 228.5,84.5C 225.687,84.9754 223.687,83.9754 222.5,81.5 Z"/></g>
<g><path style="opacity:1" fill="#f9f9fb" d="M 258.5,95.5 C 257.858,99.4749 258.858,102.808 261.5,105.5C 266.942,117.545 271.942,129.878 276.5,142.5C 276.5,143.5 276.5,144.5 276.5,145.5C 273.5,145.5 270.5,145.5 267.5,145.5C 267.167,145.5 266.833,145.5 266.5,145.5C 263.038,144.518 259.371,144.185 255.5,144.5C 255.666,152.507 255.5,160.507 255,168.5C 253.333,169.833 251.667,169.833 250,168.5C 249.829,160.323 249.329,152.323 248.5,144.5C 245.615,144.194 242.948,144.527 240.5,145.5C 239.5,145.5 238.5,145.5 237.5,145.5C 234.5,145.5 231.5,145.5 228.5,145.5C 228.629,143.784 228.962,142.117 229.5,140.5C 229.415,135.685 230.749,131.351 233.5,127.5C 235.961,119.255 238.961,111.255 242.5,103.5C 244.104,102.713 244.771,101.38 244.5,99.5C 245.346,96.4518 246.346,93.4518 247.5,90.5C 248.834,88.5343 250.168,86.5343 251.5,84.5C 252.814,85.3128 253.981,86.3128 255,87.5C 255.502,90.488 256.669,93.1547 258.5,95.5 Z"/></g>
<g><path style="opacity:1" fill="#779fc1" d="M 269.5,81.5 C 269.232,83.099 269.566,84.4324 270.5,85.5C 270.167,86.1667 269.833,86.8333 269.5,87.5C 268.325,87.719 267.325,87.3857 266.5,86.5C 267.793,84.8974 268.793,83.2307 269.5,81.5 Z"/></g>
<g><path style="opacity:1" fill="#929bb5" d="M 267.5,94.5 C 265.919,96.1417 265.253,98.1417 265.5,100.5C 265.167,100.5 264.833,100.5 264.5,100.5C 264.5,99.8333 264.5,99.1667 264.5,98.5C 264.088,96.0274 265.088,94.6941 267.5,94.5 Z"/></g>
<g><path style="opacity:1" fill="#7472a5" d="M 239.5,99.5 C 239.573,101.027 238.906,102.027 237.5,102.5C 237.427,100.973 238.094,99.9731 239.5,99.5 Z"/></g>
<g><path style="opacity:1" fill="#7a78af" d="M 244.5,99.5 C 244.771,101.38 244.104,102.713 242.5,103.5C 242.66,101.847 243.326,100.514 244.5,99.5 Z"/></g>
<g><path style="opacity:1" fill="#a7a7c5" d="M 258.5,95.5 C 258.833,95.5 259.167,95.5 259.5,95.5C 260.167,98.8333 260.833,102.167 261.5,105.5C 258.858,102.808 257.858,99.4749 258.5,95.5 Z"/></g>
<g><path style="opacity:1" fill="#1e1a61" d="M 263.5,96.5 C 263.328,97.4916 263.662,98.1583 264.5,98.5C 264.5,99.1667 264.5,99.8333 264.5,100.5C 265.508,102.544 266.508,104.544 267.5,106.5C 267.833,107.167 268.167,107.833 268.5,108.5C 268.182,111.481 269.182,113.815 271.5,115.5C 272.43,119.586 273.597,123.586 275,127.5C 275.383,128.056 275.883,128.389 276.5,128.5C 278.5,133.167 280.5,137.833 282.5,142.5C 282.5,143.833 282.5,145.167 282.5,146.5C 281.167,146.5 279.833,146.5 278.5,146.5C 278.771,144.62 278.104,143.287 276.5,142.5C 271.942,129.878 266.942,117.545 261.5,105.5C 260.833,102.167 260.167,98.8333 259.5,95.5C 259.735,94.9033 260.235,94.5699 261,94.5C 262.011,95.0556 262.844,95.7222 263.5,96.5 Z"/></g>
<g><path style="opacity:1" fill="#56588c" d="M 264.5,100.5 C 264.833,100.5 265.167,100.5 265.5,100.5C 267.081,102.142 267.747,104.142 267.5,106.5C 266.508,104.544 265.508,102.544 264.5,100.5 Z"/></g>
<g><path style="opacity:1" fill="#5d5a88" d="M 268.5,108.5 C 269.912,110.604 270.912,112.937 271.5,115.5C 269.182,113.815 268.182,111.481 268.5,108.5 Z"/></g>
<g><path style="opacity:1" fill="#251e70" d="M 247.5,90.5 C 246.346,93.4518 245.346,96.4518 244.5,99.5C 243.326,100.514 242.66,101.847 242.5,103.5C 238.961,111.255 235.961,119.255 233.5,127.5C 232.5,127.5 231.5,127.5 230.5,127.5C 230.5,125.167 230.5,122.833 230.5,120.5C 230.5,120.167 230.5,119.833 230.5,119.5C 232.241,117.605 233.241,115.272 233.5,112.5C 234.956,109.259 236.289,105.926 237.5,102.5C 238.906,102.027 239.573,101.027 239.5,99.5C 241.335,96.158 242.502,92.4914 243,88.5C 246.221,85.2718 247.721,85.9385 247.5,90.5 Z"/></g>
<g><path style="opacity:1" fill="#8481b4" d="M 233.5,112.5 C 233.241,115.272 232.241,117.605 230.5,119.5C 230.759,116.728 231.759,114.395 233.5,112.5 Z"/></g>
<g><path style="opacity:1" fill="#63609a" d="M 271.5,115.5 C 274.49,119.213 276.157,123.547 276.5,128.5C 275.883,128.389 275.383,128.056 275,127.5C 273.597,123.586 272.43,119.586 271.5,115.5 Z"/></g>
<g><path style="opacity:1" fill="#2d2668" d="M 230.5,120.5 C 230.5,122.833 230.5,125.167 230.5,127.5C 231.5,127.5 232.5,127.5 233.5,127.5C 230.749,131.351 229.415,135.685 229.5,140.5C 228.5,140.833 227.833,141.5 227.5,142.5C 225.824,143.183 225.157,144.517 225.5,146.5C 223.901,146.768 222.568,146.434 221.5,145.5C 224.009,136.99 227.009,128.657 230.5,120.5 Z"/></g>
<g><path style="opacity:1" fill="#adb5d0" d="M 229.5,140.5 C 228.962,142.117 228.629,143.784 228.5,145.5C 231.5,145.5 234.5,145.5 237.5,145.5C 235.735,146.461 233.735,146.795 231.5,146.5C 230.167,146.5 228.833,146.5 227.5,146.5C 227.5,145.167 227.5,143.833 227.5,142.5C 227.833,141.5 228.5,140.833 229.5,140.5 Z"/></g>
<g><path style="opacity:1" fill="#7b86a0" d="M 276.5,142.5 C 278.104,143.287 278.771,144.62 278.5,146.5C 279.833,146.5 281.167,146.5 282.5,146.5C 282.5,145.167 282.5,143.833 282.5,142.5C 283.793,143.842 284.626,145.509 285,147.5C 286.98,148.749 288.813,150.082 290.5,151.5C 289.417,151.461 288.417,151.127 287.5,150.5C 286.702,150.957 286.369,151.624 286.5,152.5C 283.959,147.027 280.626,146.36 276.5,150.5C 276.5,149.5 276.5,148.5 276.5,147.5C 273.273,147.324 270.273,146.657 267.5,145.5C 270.5,145.5 273.5,145.5 276.5,145.5C 276.5,144.5 276.5,143.5 276.5,142.5 Z"/></g>
<g><path style="opacity:1" fill="#174271" d="M 266.5,145.5 C 266.833,145.5 267.167,145.5 267.5,145.5C 270.273,146.657 273.273,147.324 276.5,147.5C 276.5,148.5 276.5,149.5 276.5,150.5C 274.167,154.549 271.833,158.549 269.5,162.5C 267.635,156.379 264.468,155.379 260,159.5C 259.66,166.581 262.494,168.248 268.5,164.5C 268.634,166.292 268.301,167.958 267.5,169.5C 266.833,169.5 266.167,169.5 265.5,169.5C 265.167,169.5 264.833,169.5 264.5,169.5C 262.052,168.527 259.385,168.194 256.5,168.5C 256.5,160.833 256.5,153.167 256.5,145.5C 259.833,145.5 263.167,145.5 266.5,145.5 Z"/></g>
<g><path style="opacity:1" fill="#406180" d="M 240.5,145.5 C 242.948,144.527 245.615,144.194 248.5,144.5C 248.826,152.684 248.492,160.684 247.5,168.5C 247.5,166.833 247.5,165.167 247.5,163.5C 247.5,162.167 247.5,160.833 247.5,159.5C 247.5,154.833 247.5,150.167 247.5,145.5C 245.167,145.5 242.833,145.5 240.5,145.5 Z"/></g>
<g><path style="opacity:1" fill="#3b5273" d="M 227.5,142.5 C 227.5,143.833 227.5,145.167 227.5,146.5C 228.833,146.5 230.167,146.5 231.5,146.5C 227.251,147.506 226.585,149.672 229.5,153C 230.793,153.49 232.127,153.657 233.5,153.5C 233.884,158.975 234.884,164.308 236.5,169.5C 237.5,169.5 238.5,169.5 239.5,169.5C 238.645,170.531 237.978,171.697 237.5,173C 239.191,175.571 240.191,178.404 240.5,181.5C 239.127,181.657 237.793,181.49 236.5,181C 235.968,178.537 234.634,176.703 232.5,175.5C 232.5,174.5 232.5,173.5 232.5,172.5C 233.496,172.586 234.329,172.252 235,171.5C 235.808,169.421 235.641,167.421 234.5,165.5C 232.107,159.517 229.273,153.85 226,148.5C 224.175,147.897 222.341,147.23 220.5,146.5C 220.624,145.893 220.957,145.56 221.5,145.5C 222.568,146.434 223.901,146.768 225.5,146.5C 225.157,144.517 225.824,143.183 227.5,142.5 Z"/></g>
<g><path style="opacity:1" fill="#0c3b80" d="M 269.5,162.5 C 269.167,163.167 268.833,163.833 268.5,164.5C 262.494,168.248 259.66,166.581 260,159.5C 264.468,155.379 267.635,156.379 269.5,162.5 Z"/></g>
<g><path style="opacity:1" fill="#597194" d="M 206.5,154.5 C 204.668,158.175 201.668,160.175 197.5,160.5C 200.245,158.282 203.245,156.282 206.5,154.5 Z"/></g>
<g><path style="opacity:1" fill="#8398ad" d="M 248.5,144.5 C 249.329,152.323 249.829,160.323 250,168.5C 251.667,169.833 253.333,169.833 255,168.5C 255.5,160.507 255.666,152.507 255.5,144.5C 259.371,144.185 263.038,144.518 266.5,145.5C 263.167,145.5 259.833,145.5 256.5,145.5C 256.5,153.167 256.5,160.833 256.5,168.5C 259.385,168.194 262.052,168.527 264.5,169.5C 260.838,169.034 257.505,169.701 254.5,171.5C 253.432,170.566 252.099,170.232 250.5,170.5C 250.5,174.167 250.5,177.833 250.5,181.5C 249.517,177.702 249.183,173.702 249.5,169.5C 246.167,169.5 242.833,169.5 239.5,169.5C 241.948,168.527 244.615,168.194 247.5,168.5C 248.492,160.684 248.826,152.684 248.5,144.5 Z"/></g>
<g><path style="opacity:1" fill="#5d6d7d" d="M 285.5,168.5 C 284.054,165.914 282.387,163.58 280.5,161.5C 280.706,159.451 281.539,159.117 283,160.5C 284.707,162.909 285.54,165.575 285.5,168.5 Z"/></g>
<g><path style="opacity:1" fill="#25466d" d="M 290.5,151.5 C 298.65,155.072 306.317,159.406 313.5,164.5C 310.267,164.217 307.601,162.884 305.5,160.5C 299.229,163.199 296.229,161.199 296.5,154.5C 294.5,154.5 292.5,154.5 290.5,154.5C 290.674,156.861 291.007,159.194 291.5,161.5C 290.833,161.167 290.167,160.833 289.5,160.5C 289.606,157.385 288.606,154.719 286.5,152.5C 286.369,151.624 286.702,150.957 287.5,150.5C 288.417,151.127 289.417,151.461 290.5,151.5 Z"/></g>
<g><path style="opacity:1" fill="#92a2a7" d="M 221.5,161.5 C 220.492,163.544 219.492,165.544 218.5,167.5C 218.025,164.687 219.025,162.687 221.5,161.5 Z"/></g>
<g><path style="opacity:1" fill="#2d4469" d="M 280.5,161.5 C 282.387,163.58 284.054,165.914 285.5,168.5C 287.129,171.65 288.463,174.983 289.5,178.5C 289.167,178.833 288.833,179.167 288.5,179.5C 284.027,178.387 280.027,176.387 276.5,173.5C 275.372,168.68 276.705,164.68 280.5,161.5 Z"/></g>
<g><path style="opacity:1" fill="#3a516d" d="M 229.5,171.5 C 229.027,172.906 228.027,173.573 226.5,173.5C 228.06,168.891 226.393,166.724 221.5,167C 220.667,167.833 219.833,168.667 219,169.5C 218.326,172.26 217.493,174.927 216.5,177.5C 217.5,177.5 218.5,177.5 219.5,177.5C 217.785,180.756 215.785,181.422 213.5,179.5C 215.204,175.48 216.871,171.48 218.5,167.5C 219.492,165.544 220.492,163.544 221.5,161.5C 221.948,159.535 222.948,159.202 224.5,160.5C 226.436,164.039 228.102,167.705 229.5,171.5 Z"/></g>
<g><path style="opacity:1" fill="#083b7b" d="M 247.5,159.5 C 247.5,160.833 247.5,162.167 247.5,163.5C 243.173,167.803 239.34,167.469 236,162.5C 235.304,159.522 234.804,156.522 234.5,153.5C 235.552,153.649 236.552,153.483 237.5,153C 238.704,148.291 241.704,146.124 246.5,146.5C 246.182,151.032 246.515,155.366 247.5,159.5 Z"/></g>
<g><path style="opacity:1" fill="#143b6b" d="M 237.5,145.5 C 238.5,145.5 239.5,145.5 240.5,145.5C 242.833,145.5 245.167,145.5 247.5,145.5C 247.5,150.167 247.5,154.833 247.5,159.5C 246.515,155.366 246.182,151.032 246.5,146.5C 241.704,146.124 238.704,148.291 237.5,153C 236.552,153.483 235.552,153.649 234.5,153.5C 234.804,156.522 235.304,159.522 236,162.5C 239.34,167.469 243.173,167.803 247.5,163.5C 247.5,165.167 247.5,166.833 247.5,168.5C 244.615,168.194 241.948,168.527 239.5,169.5C 238.5,169.5 237.5,169.5 236.5,169.5C 234.884,164.308 233.884,158.975 233.5,153.5C 232.127,153.657 230.793,153.49 229.5,153C 226.585,149.672 227.251,147.506 231.5,146.5C 233.735,146.795 235.735,146.461 237.5,145.5 Z"/></g>
<g><path style="opacity:1" fill="#889ab1" d="M 289.5,160.5 C 290.167,160.833 290.833,161.167 291.5,161.5C 292.11,162.391 292.443,163.391 292.5,164.5C 292.5,165.167 292.5,165.833 292.5,166.5C 291.508,164.544 290.508,162.544 289.5,160.5 Z"/></g>
<g><path style="opacity:1" fill="#0d3c76" d="M 206.5,154.5 C 213.991,154.169 214.491,155.836 208,159.5C 207.296,167.413 205.463,174.746 202.5,181.5C 201.93,175.849 202.93,170.516 205.5,165.5C 204.653,164.155 203.487,163.155 202,162.5C 199.833,164 197.667,165.5 195.5,167C 196.191,168.067 196.691,169.234 197,170.5C 197.718,169.549 198.551,169.383 199.5,170C 198.283,171.648 197.45,173.481 197,175.5C 194.365,178.506 192.365,178.172 191,174.5C 189.155,176.35 187.155,176.683 185,175.5C 184.3,178.831 183.133,181.831 181.5,184.5C 176.994,183.527 174.828,185.194 175,189.5C 181.338,190.337 185.838,193.67 188.5,199.5C 188.167,199.5 187.833,199.5 187.5,199.5C 186.609,198.89 185.609,198.557 184.5,198.5C 184.67,197.178 184.337,196.011 183.5,195C 181.26,194.023 178.927,193.523 176.5,193.5C 175.167,192.833 174.167,191.833 173.5,190.5C 174.633,180.535 179.967,174.035 189.5,171C 191.633,167.367 193.966,163.867 196.5,160.5C 196.833,160.5 197.167,160.5 197.5,160.5C 201.668,160.175 204.668,158.175 206.5,154.5 Z"/></g>
<g><path style="opacity:1" fill="#163c6b" d="M 226.5,173.5 C 226.5,173.833 226.5,174.167 226.5,174.5C 224.278,175.688 221.945,176.688 219.5,177.5C 218.5,177.5 217.5,177.5 216.5,177.5C 217.493,174.927 218.326,172.26 219,169.5C 219.833,168.667 220.667,167.833 221.5,167C 226.393,166.724 228.06,168.891 226.5,173.5 Z"/></g>
<g><path style="opacity:1" fill="#9fb1bc" d="M 229.5,171.5 C 230.391,172.11 231.391,172.443 232.5,172.5C 232.5,173.5 232.5,174.5 232.5,175.5C 230.621,174.659 228.621,174.325 226.5,174.5C 226.5,174.167 226.5,173.833 226.5,173.5C 228.027,173.573 229.027,172.906 229.5,171.5 Z"/></g>
<g><path style="opacity:1" fill="#405b70" d="M 265.5,169.5 C 266.167,169.5 266.833,169.5 267.5,169.5C 268.401,171.727 270.067,172.727 272.5,172.5C 272.405,175.358 271.238,177.691 269,179.5C 267.556,181.155 265.722,181.822 263.5,181.5C 263.801,178.43 264.801,175.597 266.5,173C 266.352,171.744 266.018,170.577 265.5,169.5 Z"/></g>
<g><path style="opacity:1" fill="#9dacbe" d="M 292.5,166.5 C 294.38,168.755 295.38,171.422 295.5,174.5C 293.62,172.245 292.62,169.578 292.5,166.5 Z"/></g>
<g><path style="opacity:1" fill="#25436b" d="M 313.5,164.5 C 321.369,169.859 328.536,176.192 335,183.5C 335.78,185.387 335.613,187.054 334.5,188.5C 335.167,184.5 333.5,182.833 329.5,183.5C 329.579,182.07 329.246,180.736 328.5,179.5C 325.853,176.843 322.853,174.677 319.5,173C 317.146,170.351 315.146,167.518 313.5,164.5 Z"/></g>
<g><path style="opacity:1" fill="#063e81" d="M 202.5,181.5 C 201.236,183.27 199.736,184.937 198,186.5C 197.649,193.002 194.482,197.336 188.5,199.5C 185.838,193.67 181.338,190.337 175,189.5C 174.828,185.194 176.994,183.527 181.5,184.5C 183.133,181.831 184.3,178.831 185,175.5C 187.155,176.683 189.155,176.35 191,174.5C 192.365,178.172 194.365,178.506 197,175.5C 197.45,173.481 198.283,171.648 199.5,170C 198.551,169.383 197.718,169.549 197,170.5C 196.691,169.234 196.191,168.067 195.5,167C 197.667,165.5 199.833,164 202,162.5C 203.487,163.155 204.653,164.155 205.5,165.5C 202.93,170.516 201.93,175.849 202.5,181.5 Z"/></g>
<g><path style="opacity:1" fill="#234068" d="M 254.5,171.5 C 254.5,174.833 254.5,178.167 254.5,181.5C 253.167,181.5 251.833,181.5 250.5,181.5C 250.5,177.833 250.5,174.167 250.5,170.5C 252.099,170.232 253.432,170.566 254.5,171.5 Z"/></g>
<g><path style="opacity:1" fill="#2a4670" d="M 196.5,160.5 C 193.966,163.867 191.633,167.367 189.5,171C 179.967,174.035 174.633,180.535 173.5,190.5C 171.436,189.942 169.77,188.775 168.5,187C 175.526,175.667 184.859,166.834 196.5,160.5 Z"/></g>
<g><path style="opacity:1" fill="#093e7c" d="M 313.5,164.5 C 315.146,167.518 317.146,170.351 319.5,173C 322.853,174.677 325.853,176.843 328.5,179.5C 329.246,180.736 329.579,182.07 329.5,183.5C 333.5,182.833 335.167,184.5 334.5,188.5C 333.5,189.167 332.5,189.833 331.5,190.5C 327.734,190.426 324.734,191.926 322.5,195C 318.049,197.351 313.383,198.684 308.5,199C 307.748,198.329 307.414,197.496 307.5,196.5C 307.33,195.178 307.663,194.011 308.5,193C 309.931,192.535 311.097,191.701 312,190.5C 312.333,190.833 312.667,191.167 313,191.5C 314.009,189.975 314.509,188.308 314.5,186.5C 311.751,186.274 309.084,186.607 306.5,187.5C 301.297,181.114 297.297,173.947 294.5,166C 294.164,164.97 293.497,164.47 292.5,164.5C 292.443,163.391 292.11,162.391 291.5,161.5C 291.007,159.194 290.674,156.861 290.5,154.5C 292.5,154.5 294.5,154.5 296.5,154.5C 296.229,161.199 299.229,163.199 305.5,160.5C 307.601,162.884 310.267,164.217 313.5,164.5 Z"/></g>
<g><path style="opacity:1" fill="#153f72" d="M 292.5,164.5 C 293.497,164.47 294.164,164.97 294.5,166C 297.297,173.947 301.297,181.114 306.5,187.5C 309.084,186.607 311.751,186.274 314.5,186.5C 314.509,188.308 314.009,189.975 313,191.5C 312.667,191.167 312.333,190.833 312,190.5C 311.097,191.701 309.931,192.535 308.5,193C 307.663,194.011 307.33,195.178 307.5,196.5C 306.764,194.771 305.43,193.771 303.5,193.5C 301.152,187.125 298.485,180.792 295.5,174.5C 295.38,171.422 294.38,168.755 292.5,166.5C 292.5,165.833 292.5,165.167 292.5,164.5 Z"/></g>
<g><path style="opacity:1" fill="#1e4270" d="M 200.5,193.5 C 199.113,195.877 198.279,198.543 198,201.5C 197.329,202.252 196.496,202.586 195.5,202.5C 192.79,201.494 190.124,200.494 187.5,199.5C 187.833,199.5 188.167,199.5 188.5,199.5C 194.482,197.336 197.649,193.002 198,186.5C 199.736,184.937 201.236,183.27 202.5,181.5C 205.463,174.746 207.296,167.413 208,159.5C 214.491,155.836 213.991,154.169 206.5,154.5C 209.576,152.945 212.909,151.945 216.5,151.5C 214.557,156.343 213.057,161.343 212,166.5C 207.414,175.179 203.58,184.179 200.5,193.5 Z"/></g>
<g><path style="opacity:1" fill="#38536b" d="M 176.5,193.5 C 178.927,193.523 181.26,194.023 183.5,195C 184.337,196.011 184.67,197.178 184.5,198.5C 181.151,197.831 178.484,196.164 176.5,193.5 Z"/></g>
<g><path style="opacity:1" fill="#2a4c72" d="M 331.5,190.5 C 328.414,193.223 325.08,195.723 321.5,198C 317.336,198.419 313.67,199.919 310.5,202.5C 307.095,200.417 304.761,197.417 303.5,193.5C 305.43,193.771 306.764,194.771 307.5,196.5C 307.414,197.496 307.748,198.329 308.5,199C 313.383,198.684 318.049,197.351 322.5,195C 324.734,191.926 327.734,190.426 331.5,190.5 Z"/></g>
<g><path style="opacity:1" fill="#a2b4c4" d="M 200.5,193.5 C 200.058,197.154 199.724,200.821 199.5,204.5C 198.5,204.5 197.5,204.5 196.5,204.5C 196.5,206.167 196.5,207.833 196.5,209.5C 195.532,207.393 195.198,205.059 195.5,202.5C 196.496,202.586 197.329,202.252 198,201.5C 198.279,198.543 199.113,195.877 200.5,193.5 Z"/></g>
<g><path style="opacity:1" fill="#2f4269" d="M 199.5,204.5 C 201.774,205.737 204.107,207.071 206.5,208.5C 207.429,209.689 207.762,211.022 207.5,212.5C 203.653,212.106 199.986,211.106 196.5,209.5C 196.5,207.833 196.5,206.167 196.5,204.5C 197.5,204.5 198.5,204.5 199.5,204.5 Z"/></g>
<g><path style="opacity:1" fill="#284162" d="M 299.5,211.5 C 297.775,211.157 297.275,210.157 298,208.5C 299.302,207.915 300.469,207.249 301.5,206.5C 305.183,204.659 307.516,205.659 308.5,209.5C 305.461,210.01 302.461,210.677 299.5,211.5 Z"/></g>
<g><path style="opacity:1" fill="#0b3f7b" d="M 166.5,195.5 C 172.746,201.085 179.746,205.418 187.5,208.5C 191.275,208.616 192.942,210.616 192.5,214.5C 191.527,224.084 191.194,233.75 191.5,243.5C 191.5,245.167 191.5,246.833 191.5,248.5C 181.833,248.5 172.167,248.5 162.5,248.5C 162.5,247.833 162.5,247.167 162.5,246.5C 158.486,246.666 154.486,246.499 150.5,246C 149.426,245.261 148.759,244.261 148.5,243C 149.977,239.67 150.811,236.17 151,232.5C 152.316,231.026 153.316,229.359 154,227.5C 154.667,222.167 155.333,216.833 156,211.5C 158.013,206.026 160.18,200.693 162.5,195.5C 163.833,195.5 165.167,195.5 166.5,195.5 Z"/></g>
<g><path style="opacity:1" fill="#033d81" d="M 162.5,246.5 C 159.311,245.834 155.977,245.167 152.5,244.5C 152.013,243.554 151.68,242.554 151.5,241.5C 153.34,235.824 155.173,230.158 157,224.5C 157.758,222.231 157.591,220.064 156.5,218C 158.011,213.63 159.011,209.13 159.5,204.5C 162.064,205.866 164.564,207.533 167,209.5C 168.164,209.835 169.497,209.835 171,209.5C 171.483,210.448 171.649,211.448 171.5,212.5C 169.799,212.966 168.299,212.966 167,212.5C 166.816,220.079 166.316,227.579 165.5,235C 166.081,235.893 166.415,236.893 166.5,238C 165.715,239.951 164.715,241.785 163.5,243.5C 172.616,243.86 181.616,244.193 190.5,244.5C 190.5,245.5 190.5,246.5 190.5,247.5C 181.127,247.752 171.793,247.418 162.5,246.5 Z"/></g>
<g><path style="opacity:1" fill="#2d4e70" d="M 251.5,221.5 C 249.5,221.5 248.5,220.5 248.5,218.5C 248.778,216.654 248.111,215.32 246.5,214.5C 244.833,215.833 243.167,215.833 241.5,214.5C 239.21,215.467 237.21,216.8 235.5,218.5C 236.379,216.772 237.046,214.939 237.5,213C 236.053,209.157 234.72,205.324 233.5,201.5C 234.873,201.343 236.207,201.51 237.5,202C 239.677,203.515 241.844,205.015 244,206.5C 245.434,206.07 246.601,205.236 247.5,204C 248.793,203.51 250.127,203.343 251.5,203.5C 250.231,205.825 248.898,208.159 247.5,210.5C 248.586,214.28 249.919,217.947 251.5,221.5 Z"/></g>
<g><path style="opacity:1" fill="#606a7b" d="M 301.5,206.5 C 300.469,207.249 299.302,207.915 298,208.5C 297.275,210.157 297.775,211.157 299.5,211.5C 296.006,212.835 294.84,211.501 296,207.5C 297.699,206.594 299.533,206.261 301.5,206.5 Z"/></g>
<g><path style="opacity:1" fill="#8e9cae" d="M 187.5,208.5 C 193.023,207.673 194.69,209.673 192.5,214.5C 192.942,210.616 191.275,208.616 187.5,208.5 Z"/></g>
<g><path style="opacity:1" fill="#063f7d" d="M 338.5,195.5 C 339.376,195.369 340.043,195.702 340.5,196.5C 341.381,199.93 342.548,203.263 344,206.5C 344.782,209.076 346.282,211.076 348.5,212.5C 348.985,219.961 350.151,227.294 352,234.5C 353.747,237.21 354.747,240.21 355,243.5C 355.816,244.823 356.983,245.489 358.5,245.5C 358.5,246.5 358.5,247.5 358.5,248.5C 344.833,248.5 331.167,248.5 317.5,248.5C 316.571,247.685 315.571,246.852 314.5,246C 315,245.5 315.5,245 316,244.5C 317.949,234.497 317.949,224.497 316,214.5C 314.117,213.347 313.284,211.681 313.5,209.5C 322.452,206.184 330.786,201.518 338.5,195.5 Z"/></g>
<g><path style="opacity:1" fill="#33496b" d="M 278.5,224.5 C 277.737,223.732 276.737,223.232 275.5,223C 276.056,222.617 276.389,222.117 276.5,221.5C 278.069,216.427 281.402,214.594 286.5,216C 287.337,217.011 287.67,218.178 287.5,219.5C 286.178,219.33 285.011,219.663 284,220.5C 283.536,224.091 282.036,227.091 279.5,229.5C 278.548,227.955 278.215,226.288 278.5,224.5 Z"/></g>
<g><path style="opacity:1" fill="#8ca0b6" d="M 276.5,221.5 C 276.389,222.117 276.056,222.617 275.5,223C 276.737,223.232 277.737,223.732 278.5,224.5C 275.167,224.5 271.833,224.5 268.5,224.5C 268.5,225.5 268.5,226.5 268.5,227.5C 268.167,227.5 267.833,227.5 267.5,227.5C 267.5,226.5 267.5,225.5 267.5,224.5C 265.585,224.784 263.919,224.451 262.5,223.5C 265.421,223.854 267.754,222.854 269.5,220.5C 270.719,221.263 271.719,222.263 272.5,223.5C 273.622,222.37 274.956,221.703 276.5,221.5 Z"/></g>
<g><path style="opacity:1" fill="#163e6e" d="M 355.5,222.5 C 355.923,229.5 356.423,236.5 357,243.5C 357.717,244.044 358.217,244.711 358.5,245.5C 356.983,245.489 355.816,244.823 355,243.5C 354.747,240.21 353.747,237.21 352,234.5C 350.151,227.294 348.985,219.961 348.5,212.5C 346.282,211.076 344.782,209.076 344,206.5C 342.548,203.263 341.381,199.93 340.5,196.5C 340.043,195.702 339.376,195.369 338.5,195.5C 339.314,193.727 340.648,193.227 342.5,194C 344,196.167 345.5,198.333 347,200.5C 349.564,208.039 352.397,215.372 355.5,222.5 Z"/></g>
<g><path style="opacity:1" fill="#164675" d="M 251.5,221.5 C 255.273,222.103 258.939,222.77 262.5,223.5C 263.919,224.451 265.585,224.784 267.5,224.5C 267.5,225.5 267.5,226.5 267.5,227.5C 264.257,226.42 260.924,226.253 257.5,227C 254.916,234.741 250.249,236.408 243.5,232C 247.105,230.028 250.105,227.361 252.5,224C 251.748,223.329 251.414,222.496 251.5,221.5 Z"/></g>
<g><path style="opacity:1" fill="#294870" d="M 313.5,209.5 C 313.284,211.681 314.117,213.347 316,214.5C 317.949,224.497 317.949,234.497 316,244.5C 315.5,245 315,245.5 314.5,246C 315.571,246.852 316.571,247.685 317.5,248.5C 316.167,248.5 314.833,248.5 313.5,248.5C 313.401,245.763 313.735,243.096 314.5,240.5C 315.624,230.956 314.957,221.456 312.5,212C 312.528,210.93 312.861,210.097 313.5,209.5 Z"/></g>
<g><path style="opacity:1" fill="#0e3d7b" d="M 248.5,218.5 C 248.5,220.5 249.5,221.5 251.5,221.5C 251.414,222.496 251.748,223.329 252.5,224C 250.105,227.361 247.105,230.028 243.5,232C 250.249,236.408 254.916,234.741 257.5,227C 260.924,226.253 264.257,226.42 267.5,227.5C 267.833,227.5 268.167,227.5 268.5,227.5C 269.412,228.738 269.579,230.072 269,231.5C 263.188,235.992 257.521,240.659 252,245.5C 251.185,249.47 249.685,253.137 247.5,256.5C 246.839,257.718 246.172,259.051 245.5,260.5C 242.796,257.424 240.129,254.424 237.5,251.5C 236.985,249.249 235.985,247.249 234.5,245.5C 234.652,240.182 234.652,235.015 234.5,230C 236.581,227.787 237.915,225.12 238.5,222C 240.825,217.774 244.158,216.607 248.5,218.5 Z"/></g>
<g><path style="opacity:1" fill="#214370" d="M 248.5,218.5 C 244.158,216.607 240.825,217.774 238.5,222C 237.915,225.12 236.581,227.787 234.5,230C 234.652,235.015 234.652,240.182 234.5,245.5C 233.683,243.031 233.183,240.365 233,237.5C 232.261,236.426 231.261,235.759 230,235.5C 224.554,236.722 222.054,234.389 222.5,228.5C 224.5,228.5 226.5,228.5 228.5,228.5C 228.116,226.071 227.449,223.737 226.5,221.5C 229.593,220.787 232.593,219.787 235.5,218.5C 237.21,216.8 239.21,215.467 241.5,214.5C 243.167,215.833 244.833,215.833 246.5,214.5C 248.111,215.32 248.778,216.654 248.5,218.5 Z"/></g>
<g><path style="opacity:1" fill="#1c426b" d="M 166.5,195.5 C 165.167,195.5 163.833,195.5 162.5,195.5C 160.18,200.693 158.013,206.026 156,211.5C 155.333,216.833 154.667,222.167 154,227.5C 153.316,229.359 152.316,231.026 151,232.5C 150.811,236.17 149.977,239.67 148.5,243C 148.759,244.261 149.426,245.261 150.5,246C 154.486,246.499 158.486,246.666 162.5,246.5C 162.5,247.167 162.5,247.833 162.5,248.5C 157.167,248.5 151.833,248.5 146.5,248.5C 146.5,246.167 146.5,243.833 146.5,241.5C 147.314,236.404 147.98,231.237 148.5,226C 151.042,219.618 153.209,213.118 155,206.5C 157.223,201.613 160.223,197.28 164,193.5C 164.995,194.066 165.828,194.733 166.5,195.5 Z"/></g>
<g><path style="opacity:1" fill="#506e91" d="M 146.5,241.5 C 146.5,243.833 146.5,246.167 146.5,248.5C 151.833,248.5 157.167,248.5 162.5,248.5C 172.167,248.5 181.833,248.5 191.5,248.5C 191.5,246.833 191.5,245.167 191.5,243.5C 192.434,244.568 192.768,245.901 192.5,247.5C 177.202,249.484 161.536,250.151 145.5,249.5C 145.194,246.615 145.527,243.948 146.5,241.5 Z"/></g>
<g><path style="opacity:1" fill="#546f92" d="M 355.5,222.5 C 356.503,227.814 357.669,233.147 359,238.5C 359.499,242.152 359.665,245.818 359.5,249.5C 343.833,249.5 328.167,249.5 312.5,249.5C 312.336,246.813 312.503,244.146 313,241.5C 313.383,240.944 313.883,240.611 314.5,240.5C 313.735,243.096 313.401,245.763 313.5,248.5C 314.833,248.5 316.167,248.5 317.5,248.5C 331.167,248.5 344.833,248.5 358.5,248.5C 358.5,247.5 358.5,246.5 358.5,245.5C 358.217,244.711 357.717,244.044 357,243.5C 356.423,236.5 355.923,229.5 355.5,222.5 Z"/></g>
<g><path style="opacity:1" fill="#cad4dd" d="M 192.5,247.5 C 193.833,248.167 194.833,249.167 195.5,250.5C 194.833,250.5 194.5,250.833 194.5,251.5C 178.069,250.847 161.735,250.18 145.5,249.5C 161.536,250.151 177.202,249.484 192.5,247.5 Z"/></g>
<g><path style="opacity:1" fill="#727b8d" d="M 195.5,250.5 C 199.167,250.5 202.833,250.5 206.5,250.5C 206.784,252.415 206.451,254.081 205.5,255.5C 205.5,254.167 205.5,252.833 205.5,251.5C 201.958,251.187 198.625,251.521 195.5,252.5C 194.833,252.5 194.5,252.167 194.5,251.5C 194.5,250.833 194.833,250.5 195.5,250.5 Z"/></g>
<g><path style="opacity:1" fill="#2b3b54" d="M 205.5,255.5 C 201.821,255.94 198.488,255.273 195.5,253.5C 195.5,253.167 195.5,252.833 195.5,252.5C 198.625,251.521 201.958,251.187 205.5,251.5C 205.5,252.833 205.5,254.167 205.5,255.5 Z"/></g>
<g><path style="opacity:1" fill="#2a4663" d="M 237.5,251.5 C 240.129,254.424 242.796,257.424 245.5,260.5C 246.172,259.051 246.839,257.718 247.5,256.5C 247.552,259.537 246.552,262.204 244.5,264.5C 241.696,260.378 239.362,256.044 237.5,251.5 Z"/></g>
<g><path style="opacity:1" fill="#71899b" d="M 195.5,253.5 C 198.488,255.273 201.821,255.94 205.5,255.5C 203.052,256.473 200.385,256.806 197.5,256.5C 197.5,257.833 197.5,259.167 197.5,260.5C 196.833,259.5 196.167,258.5 195.5,257.5C 195.5,256.167 195.5,254.833 195.5,253.5 Z"/></g>
<g><path style="opacity:1" fill="#7c8ea7" d="M 310.5,257.5 C 309.728,258.694 308.728,259.694 307.5,260.5C 307.67,259.178 307.337,258.011 306.5,257C 303.964,256.814 301.631,256.314 299.5,255.5C 298.549,254.081 298.216,252.415 298.5,250.5C 302.167,250.5 305.833,250.5 309.5,250.5C 309.298,252.95 309.631,255.283 310.5,257.5 Z"/></g>
<g><path style="opacity:1" fill="#223b58" d="M 299.5,255.5 C 299.5,254.167 299.5,252.833 299.5,251.5C 302.5,251.5 305.5,251.5 308.5,251.5C 308.5,252.833 308.5,254.167 308.5,255.5C 305.5,255.5 302.5,255.5 299.5,255.5 Z"/></g>
<g><path style="opacity:1" fill="#8597ae" d="M 194.5,257.5 C 178.675,258.496 162.675,258.83 146.5,258.5C 146.5,260.833 146.5,263.167 146.5,265.5C 145.527,263.052 145.194,260.385 145.5,257.5C 161.833,257.5 178.167,257.5 194.5,257.5 Z"/></g>
<g><path style="opacity:1" fill="#8998b1" d="M 311.5,257.5 C 327.5,257.5 343.5,257.5 359.5,257.5C 359.813,261.042 359.479,264.375 358.5,267.5C 358.5,266.167 358.5,264.833 358.5,263.5C 358.5,261.833 358.5,260.167 358.5,258.5C 342.658,258.83 326.991,258.496 311.5,257.5 Z"/></g>
<g><path style="opacity:1" fill="#1c3f6e" d="M 194.5,257.5 C 194.833,257.5 195.167,257.5 195.5,257.5C 196.167,258.5 196.833,259.5 197.5,260.5C 201.678,267.692 206.678,274.359 212.5,280.5C 207.843,284.831 203.176,289.165 198.5,293.5C 199.474,287.844 202.474,283.511 207.5,280.5C 206.185,278.684 204.685,277.017 203,275.5C 202.329,271.322 200.496,267.822 197.5,265C 194.873,263.69 192.54,262.023 190.5,260C 178.465,259.192 166.465,259.525 154.5,261C 153.584,261.374 152.75,261.874 152,262.5C 150.777,267.497 150.443,272.831 151,278.5C 156.666,284.676 159.166,292.01 158.5,300.5C 158.5,301.833 158.5,303.167 158.5,304.5C 157.916,302.257 156.75,300.257 155,298.5C 153.425,291.927 151.258,285.593 148.5,279.5C 148.007,274.663 147.34,269.996 146.5,265.5C 146.5,263.167 146.5,260.833 146.5,258.5C 162.675,258.83 178.675,258.496 194.5,257.5 Z"/></g>
<g><path style="opacity:1" fill="#053e7e" d="M 310.5,257.5 C 310.833,257.5 311.167,257.5 311.5,257.5C 326.991,258.496 342.658,258.83 358.5,258.5C 358.5,260.167 358.5,261.833 358.5,263.5C 357.883,263.611 357.383,263.944 357,264.5C 357.351,269.929 355.851,274.596 352.5,278.5C 349.202,279.913 346.869,278.913 345.5,275.5C 346.965,273.055 346.465,271.055 344,269.5C 343.25,270.126 342.416,270.626 341.5,271C 343.098,277.792 345.098,284.459 347.5,291C 347.387,295.678 345.554,299.512 342,302.5C 339.839,307.49 337.672,312.49 335.5,317.5C 334.833,317.833 334.167,318.167 333.5,318.5C 332.066,316.78 331.233,314.78 331,312.5C 329.644,311.62 328.144,311.286 326.5,311.5C 324.727,307.697 323.394,303.697 322.5,299.5C 318.492,295.495 314.158,291.828 309.5,288.5C 306.957,287.197 304.29,286.197 301.5,285.5C 301.167,284.667 300.833,283.833 300.5,283C 302.516,279.449 303.849,275.616 304.5,271.5C 308.59,269.149 309.59,265.815 307.5,261.5C 307.5,261.167 307.5,260.833 307.5,260.5C 308.728,259.694 309.728,258.694 310.5,257.5 Z"/></g>
<g><path style="opacity:1" fill="#033d80" d="M 198.5,293.5 C 193.105,292.729 190.272,295.062 190,300.5C 187.538,299.35 185.204,298.017 183,296.5C 180.167,298 178,300.167 176.5,303C 170.813,305.037 168.146,303.204 168.5,297.5C 167.178,297.67 166.011,297.337 165,296.5C 164.357,300.68 162.19,302.014 158.5,300.5C 159.166,292.01 156.666,284.676 151,278.5C 150.443,272.831 150.777,267.497 152,262.5C 152.75,261.874 153.584,261.374 154.5,261C 166.465,259.525 178.465,259.192 190.5,260C 192.54,262.023 194.873,263.69 197.5,265C 200.496,267.822 202.329,271.322 203,275.5C 204.685,277.017 206.185,278.684 207.5,280.5C 202.474,283.511 199.474,287.844 198.5,293.5 Z"/></g>
<g><path style="opacity:1" fill="#354a68" d="M 220.5,282.5 C 219.5,282.5 218.5,282.5 217.5,282.5C 216.588,281.262 216.421,279.928 217,278.5C 219.019,275.288 221.853,273.622 225.5,273.5C 225.657,274.873 225.49,276.207 225,277.5C 223.293,279.037 221.793,280.704 220.5,282.5 Z"/></g>
<g><path style="opacity:1" fill="#314764" d="M 287.5,281.5 C 286.609,280.89 285.609,280.557 284.5,280.5C 280.991,278.898 279.658,276.398 280.5,273C 283.642,273.088 286.142,274.588 288,277.5C 288.765,279.066 288.598,280.399 287.5,281.5 Z"/></g>
<g><path style="opacity:1" fill="#01446f" d="M 192.5,276.5 C 193.833,276.5 195.167,276.5 196.5,276.5C 197.47,280.931 195.803,283.265 191.5,283.5C 191.298,281.05 191.631,278.717 192.5,276.5 Z"/></g>
<g><path style="opacity:1" fill="#a5b8ce" d="M 217.5,282.5 C 218.5,282.5 219.5,282.5 220.5,282.5C 220.5,283.5 220.5,284.5 220.5,285.5C 219.5,285.5 218.5,285.5 217.5,285.5C 217.5,284.5 217.5,283.5 217.5,282.5 Z"/></g>
<g><path style="opacity:1" fill="#889da3" d="M 284.5,280.5 C 285.609,280.557 286.609,280.89 287.5,281.5C 287.5,282.833 287.5,284.167 287.5,285.5C 286.833,285.5 286.167,285.5 285.5,285.5C 285.634,283.708 285.301,282.042 284.5,280.5 Z"/></g>
<g><path style="opacity:1" fill="#1e3952" d="M 254.5,282.5 C 254.5,285.5 254.5,288.5 254.5,291.5C 253.5,291.5 252.5,291.5 251.5,291.5C 251.5,288.5 251.5,285.5 251.5,282.5C 252.5,282.5 253.5,282.5 254.5,282.5 Z"/></g>
<g><path style="opacity:1" fill="#5b7184" d="M 254.5,282.5 C 253.5,282.5 252.5,282.5 251.5,282.5C 251.5,285.5 251.5,288.5 251.5,291.5C 252.5,291.5 253.5,291.5 254.5,291.5C 253.432,292.434 252.099,292.768 250.5,292.5C 250.5,288.833 250.5,285.167 250.5,281.5C 252.099,281.232 253.432,281.566 254.5,282.5 Z"/></g>
<g><path style="opacity:1" fill="#194274" d="M 285.5,285.5 C 286.167,285.5 286.833,285.5 287.5,285.5C 293.155,289.823 298.488,294.49 303.5,299.5C 300.834,299.067 298.168,298.567 295.5,298C 294.692,296.294 293.359,295.461 291.5,295.5C 291.714,293.856 291.38,292.356 290.5,291C 286.88,289.421 283.214,289.255 279.5,290.5C 278.253,292.042 278.253,293.542 279.5,295C 281.909,296.707 284.575,297.54 287.5,297.5C 287.5,298.5 287.5,299.5 287.5,300.5C 282.603,300.998 278.103,299.998 274,297.5C 267.79,296.788 264.123,299.455 263,305.5C 261.686,309.754 260.853,314.087 260.5,318.5C 265.444,318.61 270.11,319.776 274.5,322C 275.222,323.751 276.222,325.251 277.5,326.5C 272.4,324.415 267.067,323.248 261.5,323C 259.825,322.015 258.158,321.181 256.5,320.5C 256.5,312.167 256.5,303.833 256.5,295.5C 259.059,295.802 261.393,295.468 263.5,294.5C 270.744,291.523 278.077,288.523 285.5,285.5 Z"/></g>
<g><path style="opacity:1" fill="#134079" d="M 198.5,293.5 C 188.775,303.3 180.775,314.3 174.5,326.5C 168.176,319.836 162.842,312.502 158.5,304.5C 158.5,303.167 158.5,301.833 158.5,300.5C 162.19,302.014 164.357,300.68 165,296.5C 166.011,297.337 167.178,297.67 168.5,297.5C 168.146,303.204 170.813,305.037 176.5,303C 178,300.167 180.167,298 183,296.5C 185.204,298.017 187.538,299.35 190,300.5C 190.272,295.062 193.105,292.729 198.5,293.5 Z"/></g>
<g><path style="opacity:1" fill="#053e7e" d="M 226.5,289.5 C 227.476,290.815 228.476,292.148 229.5,293.5C 227.31,295.524 224.977,297.357 222.5,299C 223.022,299.561 223.355,300.228 223.5,301C 221.807,303.22 220.807,305.72 220.5,308.5C 224.555,308.176 228.555,308.509 232.5,309.5C 230.307,311.382 230.973,311.882 234.5,311C 233.978,310.439 233.645,309.772 233.5,309C 235.106,304.988 235.772,300.821 235.5,296.5C 239.5,296.5 243.5,296.5 247.5,296.5C 247.5,303.833 247.5,311.167 247.5,318.5C 239.142,318.55 231.476,320.717 224.5,325C 225.056,325.383 225.389,325.883 225.5,326.5C 224.07,326.579 222.736,326.246 221.5,325.5C 217.969,327.823 213.969,329.156 209.5,329.5C 212.092,331.855 211.925,333.855 209,335.5C 205.75,334.524 202.583,333.69 199.5,333C 198.833,333.667 198.167,334.333 197.5,335C 199.053,337.362 201.22,338.862 204,339.5C 204.494,341.134 204.66,342.801 204.5,344.5C 204.167,345.167 203.833,345.833 203.5,346.5C 202.022,346.762 200.689,346.429 199.5,345.5C 198.959,343.465 198.292,341.465 197.5,339.5C 196.914,339.709 196.414,340.043 196,340.5C 192.19,339.37 188.857,337.37 186,334.5C 185.503,332.19 185.337,329.857 185.5,327.5C 186.5,327.5 187.5,327.5 188.5,327.5C 188.641,317.532 193.474,311.198 203,308.5C 204.766,306.119 205.932,303.452 206.5,300.5C 208.713,298.226 211.379,296.726 214.5,296C 216.527,293.906 218.194,291.573 219.5,289C 221.847,288.666 224.181,288.833 226.5,289.5 Z"/></g>
<g><path style="opacity:1" fill="#134279" d="M 226.5,289.5 C 233.222,292.047 240.222,293.713 247.5,294.5C 248.471,303.416 248.804,312.416 248.5,321.5C 241.602,321.031 235.269,322.364 229.5,325.5C 228.292,326.234 226.959,326.567 225.5,326.5C 225.389,325.883 225.056,325.383 224.5,325C 231.476,320.717 239.142,318.55 247.5,318.5C 247.5,311.167 247.5,303.833 247.5,296.5C 243.5,296.5 239.5,296.5 235.5,296.5C 235.772,300.821 235.106,304.988 233.5,309C 233.645,309.772 233.978,310.439 234.5,311C 230.973,311.882 230.307,311.382 232.5,309.5C 228.555,308.509 224.555,308.176 220.5,308.5C 220.807,305.72 221.807,303.22 223.5,301C 223.355,300.228 223.022,299.561 222.5,299C 224.977,297.357 227.31,295.524 229.5,293.5C 228.476,292.148 227.476,290.815 226.5,289.5 Z"/></g>
<g><path style="opacity:1" fill="#063e7e" d="M 303.5,299.5 C 305.833,301.167 307.833,303.167 309.5,305.5C 309.462,308.181 310.129,310.681 311.5,313C 316.364,316.233 319.031,320.733 319.5,326.5C 316.956,326.896 314.789,326.229 313,324.5C 311.883,325.949 311.216,327.616 311,329.5C 310.667,329.167 310.333,328.833 310,328.5C 309.333,329.833 308.667,331.167 308,332.5C 303.187,333.451 301.687,336.118 303.5,340.5C 304.833,340.5 306.167,340.5 307.5,340.5C 307.5,342.167 307.5,343.833 307.5,345.5C 306.329,346.345 304.995,347.011 303.5,347.5C 301.795,345.808 299.795,344.475 297.5,343.5C 291.471,337.142 284.804,331.475 277.5,326.5C 276.222,325.251 275.222,323.751 274.5,322C 270.11,319.776 265.444,318.61 260.5,318.5C 260.853,314.087 261.686,309.754 263,305.5C 264.123,299.455 267.79,296.788 274,297.5C 278.103,299.998 282.603,300.998 287.5,300.5C 287.5,299.5 287.5,298.5 287.5,297.5C 284.575,297.54 281.909,296.707 279.5,295C 278.253,293.542 278.253,292.042 279.5,290.5C 283.214,289.255 286.88,289.421 290.5,291C 291.38,292.356 291.714,293.856 291.5,295.5C 293.359,295.461 294.692,296.294 295.5,298C 298.168,298.567 300.834,299.067 303.5,299.5 Z"/></g>
<g><path style="opacity:1" fill="#839cb1" d="M 263.5,294.5 C 261.393,295.468 259.059,295.802 256.5,295.5C 256.5,303.833 256.5,312.167 256.5,320.5C 255.507,312.016 255.174,303.349 255.5,294.5C 258.167,294.5 260.833,294.5 263.5,294.5 Z"/></g>
<g><path style="opacity:1" fill="#aabdd0" d="M 247.5,294.5 C 248.826,298.614 249.493,303.114 249.5,308C 249.499,312.68 249.166,317.18 248.5,321.5C 248.804,312.416 248.471,303.416 247.5,294.5 Z"/></g>
<g><path style="opacity:1" fill="#1d4171" d="M 307.5,261.5 C 309.59,265.815 308.59,269.149 304.5,271.5C 303.849,275.616 302.516,279.449 300.5,283C 300.833,283.833 301.167,284.667 301.5,285.5C 304.29,286.197 306.957,287.197 309.5,288.5C 314.158,291.828 318.492,295.495 322.5,299.5C 323.394,303.697 324.727,307.697 326.5,311.5C 328.144,311.286 329.644,311.62 331,312.5C 331.233,314.78 332.066,316.78 333.5,318.5C 334.167,318.167 334.833,317.833 335.5,317.5C 337.672,312.49 339.839,307.49 342,302.5C 345.554,299.512 347.387,295.678 347.5,291C 345.098,284.459 343.098,277.792 341.5,271C 342.416,270.626 343.25,270.126 344,269.5C 346.465,271.055 346.965,273.055 345.5,275.5C 346.869,278.913 349.202,279.913 352.5,278.5C 355.851,274.596 357.351,269.929 357,264.5C 357.383,263.944 357.883,263.611 358.5,263.5C 358.5,264.833 358.5,266.167 358.5,267.5C 356.416,288.668 348.083,307.002 333.5,322.5C 322.253,307.084 309.086,293.417 294,281.5C 293.333,280.5 293.333,279.5 294,278.5C 299.153,273.2 303.653,267.533 307.5,261.5 Z"/></g>
<g><path style="opacity:1" fill="#abb7c7" d="M 248.5,321.5 C 242.148,322.505 235.815,323.839 229.5,325.5C 235.269,322.364 241.602,321.031 248.5,321.5 Z"/></g>
<g><path style="opacity:1" fill="#154277" d="M 309.5,305.5 C 313.769,310.271 318.269,314.938 323,319.5C 323.853,322.845 325.353,325.845 327.5,328.5C 326.441,331.068 324.774,333.235 322.5,335C 317.471,338.51 312.471,342.01 307.5,345.5C 307.5,343.833 307.5,342.167 307.5,340.5C 306.167,340.5 304.833,340.5 303.5,340.5C 301.687,336.118 303.187,333.451 308,332.5C 308.667,331.167 309.333,329.833 310,328.5C 310.333,328.833 310.667,329.167 311,329.5C 311.216,327.616 311.883,325.949 313,324.5C 314.789,326.229 316.956,326.896 319.5,326.5C 319.031,320.733 316.364,316.233 311.5,313C 310.129,310.681 309.462,308.181 309.5,305.5 Z"/></g>
<g><path style="opacity:1" fill="#294771" d="M 217.5,285.5 C 218.5,285.5 219.5,285.5 220.5,285.5C 222.547,286.832 224.547,288.165 226.5,289.5C 224.181,288.833 221.847,288.666 219.5,289C 218.194,291.573 216.527,293.906 214.5,296C 211.379,296.726 208.713,298.226 206.5,300.5C 205.932,303.452 204.766,306.119 203,308.5C 193.474,311.198 188.641,317.532 188.5,327.5C 187.5,327.5 186.5,327.5 185.5,327.5C 185.337,329.857 185.503,332.19 186,334.5C 188.857,337.37 192.19,339.37 196,340.5C 196.414,340.043 196.914,339.709 197.5,339.5C 198.292,341.465 198.959,343.465 199.5,345.5C 200.689,346.429 202.022,346.762 203.5,346.5C 203.631,347.376 203.298,348.043 202.5,348.5C 195.008,344.849 188.175,340.182 182,334.5C 181.333,332.5 181.333,330.5 182,328.5C 191.009,311.802 202.843,297.469 217.5,285.5 Z"/></g>
<g><path style="opacity:1" fill="#143f73" d="M 225.5,326.5 C 217.297,331.031 210.297,337.031 204.5,344.5C 204.66,342.801 204.494,341.134 204,339.5C 201.22,338.862 199.053,337.362 197.5,335C 198.167,334.333 198.833,333.667 199.5,333C 202.583,333.69 205.75,334.524 209,335.5C 211.925,333.855 212.092,331.855 209.5,329.5C 213.969,329.156 217.969,327.823 221.5,325.5C 222.736,326.246 224.07,326.579 225.5,326.5 Z"/></g>
<g><path style="opacity:1" fill="#2c4b75" d="M 240.5,359.5 C 242.833,359.5 245.167,359.5 247.5,359.5C 247.5,350.167 247.5,340.833 247.5,331.5C 245.076,331.192 242.743,331.526 240.5,332.5C 235.461,335.367 230.128,337.534 224.5,339C 223.299,339.903 222.465,341.069 222,342.5C 220.586,341.587 219.086,341.587 217.5,342.5C 218.625,340.871 219.959,339.371 221.5,338C 224.565,336.956 227.232,335.29 229.5,333C 233.468,332.4 237.135,331.067 240.5,329C 243.146,328.503 245.813,328.336 248.5,328.5C 248.5,339.5 248.5,350.5 248.5,361.5C 245.302,362.036 242.635,361.369 240.5,359.5 Z"/></g>
<g><path style="opacity:1" fill="#073e7a" d="M 240.5,359.5 C 238.167,359.5 235.833,359.5 233.5,359.5C 231.236,356.785 228.236,355.285 224.5,355C 225.03,353.744 225.03,352.244 224.5,350.5C 222.392,349.056 220.059,348.39 217.5,348.5C 217.5,346.5 217.5,344.5 217.5,342.5C 219.086,341.587 220.586,341.587 222,342.5C 222.465,341.069 223.299,339.903 224.5,339C 230.128,337.534 235.461,335.367 240.5,332.5C 242.743,331.526 245.076,331.192 247.5,331.5C 247.5,340.833 247.5,350.167 247.5,359.5C 245.167,359.5 242.833,359.5 240.5,359.5 Z"/></g>
<g><path style="opacity:1" fill="#083d83" d="M 290.5,347.5 C 290.5,347.833 290.5,348.167 290.5,348.5C 290.5,349.5 290.5,350.5 290.5,351.5C 288.167,351.5 285.833,351.5 283.5,351.5C 283.975,348.677 282.975,346.677 280.5,345.5C 275.618,345.271 270.618,345.604 265.5,346.5C 263.234,346.069 261.734,344.736 261,342.5C 260.617,343.056 260.117,343.389 259.5,343.5C 259.508,340.455 259.841,337.455 260.5,334.5C 262.857,334.337 265.19,334.503 267.5,335C 272.123,338.001 276.79,341.001 281.5,344C 284.309,345.741 287.309,346.908 290.5,347.5 Z"/></g>
<g><path style="opacity:1" fill="#516e89" d="M 263.5,330.5 C 261.5,330.5 259.5,330.5 257.5,330.5C 257.5,340.167 257.5,349.833 257.5,359.5C 259.5,359.5 261.5,359.5 263.5,359.5C 262.848,360.725 261.681,361.392 260,361.5C 258.564,361.441 257.231,361.108 256,360.5C 255.5,350.172 255.334,339.839 255.5,329.5C 258.385,329.194 261.052,329.527 263.5,330.5 Z"/></g>
<g><path style="opacity:1" fill="#3c5365" d="M 297.5,343.5 C 299.795,344.475 301.795,345.808 303.5,347.5C 302.998,349.085 301.998,349.585 300.5,349C 299.242,347.259 298.242,345.426 297.5,343.5 Z"/></g>
<g><path style="opacity:1" fill="#204673" d="M 217.5,342.5 C 217.5,344.5 217.5,346.5 217.5,348.5C 220.059,348.39 222.392,349.056 224.5,350.5C 225.03,352.244 225.03,353.744 224.5,355C 228.236,355.285 231.236,356.785 233.5,359.5C 225.846,356.956 218.013,354.623 210,352.5C 211.014,348.284 213.514,344.951 217.5,342.5 Z"/></g>
<g><path style="opacity:1" fill="#0b3f77" d="M 290.5,348.5 C 291.5,348.833 292.167,349.5 292.5,350.5C 292.5,351.5 292.5,352.5 292.5,353.5C 290.585,353.216 288.919,353.549 287.5,354.5C 285.033,354.755 283.033,355.755 281.5,357.5C 279.5,357.5 277.5,357.5 275.5,357.5C 270.5,357.5 265.5,357.5 260.5,357.5C 260.717,352.77 260.383,348.103 259.5,343.5C 260.117,343.389 260.617,343.056 261,342.5C 261.734,344.736 263.234,346.069 265.5,346.5C 270.618,345.604 275.618,345.271 280.5,345.5C 282.975,346.677 283.975,348.677 283.5,351.5C 285.833,351.5 288.167,351.5 290.5,351.5C 290.5,350.5 290.5,349.5 290.5,348.5 Z"/></g>
<g><path style="opacity:1" fill="#163d6a" d="M 263.5,330.5 C 268.494,332.222 273.494,334.055 278.5,336C 283.002,339.336 287.002,343.169 290.5,347.5C 287.309,346.908 284.309,345.741 281.5,344C 276.79,341.001 272.123,338.001 267.5,335C 265.19,334.503 262.857,334.337 260.5,334.5C 259.841,337.455 259.508,340.455 259.5,343.5C 260.383,348.103 260.717,352.77 260.5,357.5C 265.5,357.5 270.5,357.5 275.5,357.5C 275.389,358.117 275.056,358.617 274.5,359C 270.848,359.499 267.182,359.665 263.5,359.5C 261.5,359.5 259.5,359.5 257.5,359.5C 257.5,349.833 257.5,340.167 257.5,330.5C 259.5,330.5 261.5,330.5 263.5,330.5 Z"/></g>
<g><path style="opacity:1" fill="#8892a4" d="M 292.5,350.5 C 294.466,351.255 294.8,352.421 293.5,354C 291.527,354.495 289.527,354.662 287.5,354.5C 288.919,353.549 290.585,353.216 292.5,353.5C 292.5,352.5 292.5,351.5 292.5,350.5 Z"/></g>
<g><path style="opacity:1" fill="#aab3c6" d="M 287.5,354.5 C 285.967,356.245 283.967,357.245 281.5,357.5C 283.033,355.755 285.033,354.755 287.5,354.5 Z"/></g>
<g><path style="opacity:1" fill="#154581" d="M 181.5,388.5 C 193.299,386.78 196.966,391.28 192.5,402C 188.974,403.337 185.308,403.837 181.5,403.5C 181.5,398.5 181.5,393.5 181.5,388.5 Z"/></g>
<g><path style="opacity:1" fill="#154481" d="M 236.5,387.5 C 238.5,387.5 240.5,387.5 242.5,387.5C 242.5,391.833 242.5,396.167 242.5,400.5C 243.5,400.5 244.5,400.5 245.5,400.5C 245.5,401.5 245.5,402.5 245.5,403.5C 242.5,403.5 239.5,403.5 236.5,403.5C 236.5,402.5 236.5,401.5 236.5,400.5C 237.5,400.5 238.5,400.5 239.5,400.5C 239.5,397.167 239.5,393.833 239.5,390.5C 238.5,390.5 237.5,390.5 236.5,390.5C 236.5,389.5 236.5,388.5 236.5,387.5 Z"/></g>
<g><path style="opacity:1" fill="#134480" d="M 310.5,388.5 C 314.215,388.423 317.881,388.756 321.5,389.5C 321.5,391.167 321.5,392.833 321.5,394.5C 320.325,394.281 319.325,394.614 318.5,395.5C 322.273,396.449 323.273,398.616 321.5,402C 317.974,403.337 314.308,403.837 310.5,403.5C 310.5,398.5 310.5,393.5 310.5,388.5 Z"/></g>
<g><path style="opacity:1" fill="#f3f6f9" d="M 184.5,391.5 C 188.24,390.68 190.573,392.013 191.5,395.5C 191.174,399.813 188.841,401.48 184.5,400.5C 184.5,397.5 184.5,394.5 184.5,391.5 Z"/></g>
<g><path style="opacity:1" fill="#d9e1eb" d="M 313.5,391.5 C 315.288,391.215 316.955,391.548 318.5,392.5C 317.332,394.217 315.665,394.884 313.5,394.5C 313.5,393.5 313.5,392.5 313.5,391.5 Z"/></g>
<g><path style="opacity:1" fill="#31568d" d="M 207.5,395.5 C 207.5,396.5 207.5,397.5 207.5,398.5C 205.076,398.192 202.743,398.526 200.5,399.5C 203.126,400.449 205.792,400.449 208.5,399.5C 208.426,401.411 207.426,402.578 205.5,403C 198.495,404.324 195.995,401.49 198,394.5C 201.579,391.627 204.745,391.96 207.5,395.5 Z"/></g>
<g><path style="opacity:1" fill="#214c86" d="M 210.5,392.5 C 211.5,392.5 212.5,392.5 213.5,392.5C 214.779,402.225 216.446,402.558 218.5,393.5C 219.325,392.614 220.325,392.281 221.5,392.5C 220.984,395.899 220.15,399.232 219,402.5C 217,403.833 215,403.833 213,402.5C 211.648,399.28 210.814,395.947 210.5,392.5 Z"/></g>
<g><path style="opacity:1" fill="#1d4a85" d="M 226.5,392.5 C 231.451,391.629 234.118,393.629 234.5,398.5C 231.753,398.187 229.086,398.52 226.5,399.5C 228.635,400.645 230.801,400.645 233,399.5C 234.726,400.648 234.559,401.815 232.5,403C 223.352,403.536 221.352,400.036 226.5,392.5 Z"/></g>
<g><path style="opacity:1" fill="#234d87" d="M 250.5,392.5 C 259.402,392.513 261.402,396.013 256.5,403C 249.657,404.694 246.824,402.194 248,395.5C 248.698,394.309 249.531,393.309 250.5,392.5 Z"/></g>
<g><path style="opacity:1" fill="#194783" d="M 265.5,395.5 C 265.5,397.167 265.5,398.833 265.5,400.5C 264.532,402.607 264.198,404.941 264.5,407.5C 263.5,407.5 262.5,407.5 261.5,407.5C 261.5,402.5 261.5,397.5 261.5,392.5C 262.5,392.5 263.5,392.5 264.5,392.5C 264.263,393.791 264.596,394.791 265.5,395.5 Z"/></g>
<g><path style="opacity:1" fill="#1a4883" d="M 265.5,400.5 C 269.676,401.169 271.009,399.669 269.5,396C 268.207,395.51 266.873,395.343 265.5,395.5C 266.706,392.861 268.706,392.028 271.5,393C 274.167,396.333 274.167,399.667 271.5,403C 269.833,403.667 268.167,403.667 266.5,403C 265.748,402.329 265.414,401.496 265.5,400.5 Z"/></g>
<g><path style="opacity:1" fill="#34588e" d="M 278.5,392.5 C 283.56,391.668 286.227,393.668 286.5,398.5C 284.076,398.192 281.743,398.526 279.5,399.5C 282.099,400.031 284.765,400.198 287.5,400C 285.312,403.207 282.312,404.207 278.5,403C 274.565,399.504 274.565,396.004 278.5,392.5 Z"/></g>
<g><path style="opacity:1" fill="#194883" d="M 297.5,395.5 C 298.473,393.052 298.806,390.385 298.5,387.5C 299.5,387.5 300.5,387.5 301.5,387.5C 301.5,392.833 301.5,398.167 301.5,403.5C 299.876,403.64 298.71,402.973 298,401.5C 290.962,404.813 288.295,402.479 290,394.5C 293.021,391.72 295.521,392.053 297.5,395.5 Z"/></g>
<g><path style="opacity:1" fill="#254e87" d="M 324.5,392.5 C 325.978,392.238 327.311,392.571 328.5,393.5C 329.792,395.667 330.625,398 331,400.5C 331.735,398.129 332.568,395.795 333.5,393.5C 334.833,392.167 336.167,392.167 337.5,393.5C 334.696,397.772 333.029,402.439 332.5,407.5C 330.167,407.5 327.833,407.5 325.5,407.5C 325.5,406.5 325.5,405.5 325.5,404.5C 326.833,404.5 328.167,404.5 329.5,404.5C 328.227,400.35 326.56,396.35 324.5,392.5 Z"/></g>
<g><path style="opacity:1" fill="#95acc7" d="M 226.5,395.5 C 228.288,395.215 229.955,395.548 231.5,396.5C 230.667,396.833 229.833,397.167 229,397.5C 227.624,397.316 226.791,396.649 226.5,395.5 Z"/></g>
<g><path style="opacity:1" fill="#f2f4f8" d="M 251.5,395.5 C 254.91,395.384 256.244,397.05 255.5,400.5C 251.065,401.078 249.732,399.411 251.5,395.5 Z"/></g>
<g><path style="opacity:1" fill="#f4f6f9" d="M 265.5,395.5 C 266.873,395.343 268.207,395.51 269.5,396C 271.009,399.669 269.676,401.169 265.5,400.5C 265.5,398.833 265.5,397.167 265.5,395.5 Z"/></g>
<g><path style="opacity:1" fill="#e9eef3" d="M 297.5,395.5 C 299.256,399.581 297.923,401.081 293.5,400C 291.991,396.331 293.324,394.831 297.5,395.5 Z"/></g>
<g><path style="opacity:1" fill="#edf1f6" d="M 313.5,397.5 C 315.5,397.5 317.5,397.5 319.5,397.5C 319.5,398.5 319.5,399.5 319.5,400.5C 317.5,400.5 315.5,400.5 313.5,400.5C 313.5,399.5 313.5,398.5 313.5,397.5 Z"/></g>
<g><path style="opacity:1" fill="#b1c2d6" d="M 207.5,395.5 C 208.434,396.568 208.768,397.901 208.5,399.5C 205.792,400.449 203.126,400.449 200.5,399.5C 202.743,398.526 205.076,398.192 207.5,398.5C 207.5,397.5 207.5,396.5 207.5,395.5 Z"/></g>
<g><path style="opacity:1" fill="#154581" d="M 206.5,417.5 C 210.584,417.043 214.417,417.71 218,419.5C 218.825,421.701 218.325,423.534 216.5,425C 218.291,427.106 218.958,429.606 218.5,432.5C 217.5,432.5 216.5,432.5 215.5,432.5C 215.5,430.833 215.5,429.167 215.5,427.5C 213.5,427.5 211.5,427.5 209.5,427.5C 209.5,429.167 209.5,430.833 209.5,432.5C 208.5,432.5 207.5,432.5 206.5,432.5C 206.5,427.5 206.5,422.5 206.5,417.5 Z"/></g>
<g><path style="opacity:1" fill="#214c86" d="M 223.5,417.5 C 226.93,417.107 230.096,417.773 233,419.5C 233.483,420.448 233.649,421.448 233.5,422.5C 231.633,422.045 229.8,421.378 228,420.5C 227.167,420.833 226.333,421.167 225.5,421.5C 228.492,422.887 231.325,424.554 234,426.5C 234.825,428.701 234.325,430.534 232.5,432C 229.5,432.667 226.5,432.667 223.5,432C 221.845,430.556 221.178,428.722 221.5,426.5C 223.359,426.461 224.692,427.294 225.5,429C 227.579,429.808 229.579,429.641 231.5,428.5C 228.306,426.932 225.14,425.265 222,423.5C 221.252,421.16 221.752,419.16 223.5,417.5 Z"/></g>
<g><path style="opacity:1" fill="#1e4a85" d="M 240.5,417.5 C 243.079,417.083 245.246,417.75 247,419.5C 248.598,423.461 250.098,427.461 251.5,431.5C 250.311,432.429 248.978,432.762 247.5,432.5C 247.845,429.512 246.512,428.179 243.5,428.5C 240.488,428.179 239.155,429.512 239.5,432.5C 238.127,432.657 236.793,432.49 235.5,432C 237.465,427.272 239.132,422.439 240.5,417.5 Z"/></g>
<g><path style="opacity:1" fill="#1c4984" d="M 257.5,417.5 C 263.119,416.063 266.452,418.063 267.5,423.5C 265.336,422.522 263.17,421.522 261,420.5C 256.918,421.159 255.584,423.492 257,427.5C 257.956,428.894 259.289,429.561 261,429.5C 263.17,428.478 265.336,427.478 267.5,426.5C 267.607,428.903 266.607,430.736 264.5,432C 255.667,433.833 252.167,430.333 254,421.5C 254.69,419.65 255.856,418.316 257.5,417.5 Z"/></g>
<g><path style="opacity:1" fill="#2d548b" d="M 284.5,417.5 C 285.833,417.5 287.167,417.5 288.5,417.5C 288.335,421.182 288.501,424.848 289,428.5C 290.667,429.833 292.333,429.833 294,428.5C 294.499,424.848 294.665,421.182 294.5,417.5C 295.833,417.5 297.167,417.5 298.5,417.5C 298.666,421.514 298.499,425.514 298,429.5C 293.594,433.423 289.261,433.423 285,429.5C 284.501,425.514 284.334,421.514 284.5,417.5 Z"/></g>
<g><path style="opacity:1" fill="#154581" d="M 300.5,417.5 C 303.187,417.336 305.854,417.503 308.5,418C 312.861,420.134 313.527,423.134 310.5,427C 308.19,427.497 305.857,427.663 303.5,427.5C 303.5,429.167 303.5,430.833 303.5,432.5C 302.5,432.5 301.5,432.5 300.5,432.5C 300.5,427.5 300.5,422.5 300.5,417.5 Z"/></g>
<g><path style="opacity:1" fill="#e2e8f0" d="M 303.5,420.5 C 305.167,420.5 306.833,420.5 308.5,420.5C 309.167,424.5 307.5,426.167 303.5,425.5C 303.5,423.833 303.5,422.167 303.5,420.5 Z"/></g>
<g><path style="opacity:1" fill="#e8edf3" d="M 242.5,420.5 C 244.185,421.184 245.185,422.517 245.5,424.5C 244.167,425.833 242.833,425.833 241.5,424.5C 242.246,423.264 242.579,421.93 242.5,420.5 Z"/></g>
<g><path style="opacity:1" fill="#cfd9e5" d="M 209.5,420.5 C 211.977,420.051 213.977,420.717 215.5,422.5C 213.977,424.283 211.977,424.949 209.5,424.5C 209.5,423.167 209.5,421.833 209.5,420.5 Z"/></g>
<g><path style="opacity:1" fill="#7594b6" d="M 271.5,425.5 C 272.694,426.777 274.36,427.444 276.5,427.5C 278.64,427.444 280.306,426.777 281.5,425.5C 282.404,426.209 282.737,427.209 282.5,428.5C 278.5,428.5 274.5,428.5 270.5,428.5C 270.263,427.209 270.596,426.209 271.5,425.5 Z"/></g>
<g><path style="opacity:1" fill="#073e7d" d="M 271.5,425.5 C 274.833,425.5 278.167,425.5 281.5,425.5C 280.306,426.777 278.64,427.444 276.5,427.5C 274.36,427.444 272.694,426.777 271.5,425.5 Z"/></g>
</svg>
